# xmcd CD database file generated by OrangeCD 5.2
#
# Track frame offsets:
#	150
#	12115
#	21737
#	31807
#	48080
#	61225
#	74485
#	89610
#	104937
#	119075
#	134025
#	148625
#	163027
#	178362
#	191985
#	206045
#	219272
#	231835
#	242817
#	255692
#
# Disc length: 3589 seconds
#
# Revision: 1
# Processed by: cddbd v1.5.1PL0 Copyright (c) Steve Scherf et al.
# Submitted via: OrangeCD 5.2
#
DISCID=410e0314
DTITLE=Various Artists Country - The Very Best Of Country Music Vol 2
DYEAR=1900
DGENRE=Country
TTITLE0=Dolly Parton - Jolene
TTITLE1=Waylon Jennings - Good Ol' Boys
TTITLE2=Jim Reeves - Is it really over
TTITLE3=Don williams - love is on a roll
TTITLE4=Lee greenwood - Hearts aren't made to break
TTITLE5=The desert rose band - She don't love nobody
TTITLE6=B.J. Thomas - Another somebody done somebody wrong song
TTITLE7=Kenny Rogers - For the good times
TTITLE8=Hank Williams Jr. - Whiskey bent and hell bound
TTITLE9=George Strait - All my ex's live in texas
TTITLE10=The bellamy brothers - Let your love flow
TTITLE11=Alabama - Song of the south
TTITLE12=Oak ridge boys - Little things
TTITLE13=Willie Nelson - Funny how time slips away
TTITLE14=Glen campbell - The hand that rock's the cradle
TTITLE15=Hank Snow - I don't hurt anymore
TTITLE16=Porter Wagoner - A satisfied mind
TTITLE17=Charley pride - She called my baby
TTITLE18=Eddy arnold - Anytime
TTITLE19=Loretta lynn - When the tingle becomes a chill
EXTD=
EXTT0=
EXTT1=
EXTT2=
EXTT3=
EXTT4=
EXTT5=
EXTT6=
EXTT7=
EXTT8=
EXTT9=
EXTT10=
EXTT11=
EXTT12=
EXTT13=
EXTT14=
EXTT15=
EXTT16=
EXTT17=
EXTT18=
EXTT19=
PLAYORDER=
